<svg xmlns="http://www.w3.org/2000/svg" width="900" height="640" viewBox="0 0 900 640" role="img" aria-labelledby="ti de">
<title id="ti">A100 上的 Roofline 与 attention 的算术强度</title>
<desc id="de">A100（BF16 稠密 312 TFLOPS，HBM 2.0 TB/s，ridge=156 FLOPs/byte）的 roofline。标准实现实测 I=1.65、FlashAttention 实测 I=17，都在 ridge 左侧（memory-bound）；2M/d 约 3072 是分块后的渐近上限，只有 N 足够大时才成立。</desc>
<rect width="900" height="640" rx="22" fill="#f8fafc"/>
<text x="450.0" y="40.0" font-family="Arial, sans-serif" font-size="21" fill="#111827" text-anchor="middle" font-weight="700" >Roofline：实测的 FA1 仍在 ridge 左边，渐近上限才越过它</text>
<text x="450.0" y="66.0" font-family="Arial, sans-serif" font-size="13.5" fill="#64748b" text-anchor="middle" font-weight="400" >A100：BF16 稠密 312 TFLOPS，HBM 2.0 TB/s ⟹ ridge = 156 FLOPs/byte</text>
<rect x="110" y="110" width="680" height="360" fill="#ffffff" stroke="#cbd5e1" stroke-width="1.5"/>
<g stroke="#eef2f7" stroke-width="1">
<line x1="157.6" y1="110" x2="157.6" y2="470"/>
<line x1="315.7" y1="110" x2="315.7" y2="470"/>
<line x1="473.8" y1="110" x2="473.8" y2="470"/>
<line x1="631.9" y1="110" x2="631.9" y2="470"/>
<line x1="790.0" y1="110" x2="790.0" y2="470"/>
<line x1="110" y1="470.0" x2="790" y2="470.0"/>
<line x1="110" y1="398.0" x2="790" y2="398.0"/>
<line x1="110" y1="326.0" x2="790" y2="326.0"/>
<line x1="110" y1="254.0" x2="790" y2="254.0"/>
<line x1="110" y1="182.0" x2="790" y2="182.0"/>
<line x1="110" y1="110.0" x2="790" y2="110.0"/>
</g>
<polygon points="110.0,326.0 504.3,146.4 790,146.4 790,470 110,470" fill="#f1f5f9"/>
<line x1="110.0" y1="326.0" x2="504.3" y2="146.4" stroke="#2563eb" stroke-width="3"/>
<line x1="504.3" y1="146.4" x2="790" y2="146.4" stroke="#dc2626" stroke-width="3"/>
<line x1="504.3" y1="110" x2="504.3" y2="470" stroke="#94a3b8" stroke-width="1.6" stroke-dasharray="6 4"/>
<text x="237.5" y="302.0" font-family="Arial, sans-serif" font-size="14" fill="#1d4ed8" text-anchor="middle" font-weight="700" >memory-bound</text>
<text x="237.5" y="322.0" font-family="Arial, sans-serif" font-size="11.5" fill="#64748b" text-anchor="middle" font-weight="400" >带宽拖后腿</text>
<text x="668.3" y="302.0" font-family="Arial, sans-serif" font-size="14" fill="#dc2626" text-anchor="middle" font-weight="700" >compute-bound</text>
<text x="668.3" y="322.0" font-family="Arial, sans-serif" font-size="11.5" fill="#64748b" text-anchor="middle" font-weight="400" >算力封顶</text>
<line x1="192.0" y1="288.7" x2="192.0" y2="470" stroke="#b45309" stroke-width="1.4" stroke-dasharray="4 4" opacity="0.75"/>
<circle cx="192.0" cy="288.7" r="7" fill="#b45309" stroke="#ffffff" stroke-width="2"/>
<line x1="352.1" y1="215.7" x2="352.1" y2="470" stroke="#b45309" stroke-width="1.4" stroke-dasharray="4 4" opacity="0.75"/>
<circle cx="352.1" cy="215.7" r="7" fill="#b45309" stroke="#ffffff" stroke-width="2"/>
<line x1="709.0" y1="146.4" x2="709.0" y2="470" stroke="#15803d" stroke-width="1.4" stroke-dasharray="4 4" opacity="0.75"/>
<circle cx="709.0" cy="146.4" r="7" fill="#15803d" stroke="#ffffff" stroke-width="2"/>
<line x1="202.0" y1="278.7" x2="339.1" y2="226.7" stroke="#b45309" stroke-width="2" marker-end="url(#ar2)"/>
<text x="268.1" y="270.0" font-family="Arial, sans-serif" font-size="12" fill="#b45309" text-anchor="middle" font-weight="700" >流量降 ~9×</text>
<text x="192.0" y="314.7" font-family="Arial, sans-serif" font-size="13" fill="#b45309" text-anchor="middle" font-weight="700" >1.65</text>
<text x="352.1" y="201.7" font-family="Arial, sans-serif" font-size="13" fill="#b45309" text-anchor="middle" font-weight="700" >17</text>
<text x="709.0" y="132.4" font-family="Arial, sans-serif" font-size="13" fill="#15803d" text-anchor="middle" font-weight="700" >3072</text>
<text x="157.6" y="488.0" font-family="Arial, sans-serif" font-size="11" fill="#64748b" text-anchor="middle" font-weight="400" >1</text>
<text x="315.7" y="488.0" font-family="Arial, sans-serif" font-size="11" fill="#64748b" text-anchor="middle" font-weight="400" >10</text>
<text x="473.8" y="488.0" font-family="Arial, sans-serif" font-size="11" fill="#64748b" text-anchor="middle" font-weight="400" >100</text>
<text x="631.9" y="488.0" font-family="Arial, sans-serif" font-size="11" fill="#64748b" text-anchor="middle" font-weight="400" >1000</text>
<text x="790.0" y="488.0" font-family="Arial, sans-serif" font-size="11" fill="#64748b" text-anchor="middle" font-weight="400" >10000</text>
<text x="102.0" y="474.0" font-family="Arial, sans-serif" font-size="11" fill="#64748b" text-anchor="end" font-weight="400" >1e10</text>
<text x="102.0" y="402.0" font-family="Arial, sans-serif" font-size="11" fill="#64748b" text-anchor="end" font-weight="400" >1e11</text>
<text x="102.0" y="330.0" font-family="Arial, sans-serif" font-size="11" fill="#64748b" text-anchor="end" font-weight="400" >1e12</text>
<text x="102.0" y="258.0" font-family="Arial, sans-serif" font-size="11" fill="#64748b" text-anchor="end" font-weight="400" >1e13</text>
<text x="102.0" y="186.0" font-family="Arial, sans-serif" font-size="11" fill="#64748b" text-anchor="end" font-weight="400" >1e14</text>
<text x="102.0" y="114.0" font-family="Arial, sans-serif" font-size="11" fill="#64748b" text-anchor="end" font-weight="400" >1e15</text>
<text x="450.0" y="512.0" font-family="Arial, sans-serif" font-size="13" fill="#334155" text-anchor="middle" font-weight="700" >算术强度 I（FLOPs/byte）</text>
<text x="34.0" y="290.0" font-family="Arial, sans-serif" font-size="13" fill="#334155" text-anchor="middle" font-weight="700" transform="rotate(-90 34 290.0)">可达性能上限（FLOPs/s）</text>
<rect x="110" y="532" width="680" height="86" rx="10" fill="#ffffff" stroke="#e2e8f0"/>
<text x="126.0" y="556.0" font-family="Arial, sans-serif" font-size="12.5" fill="#111827" text-anchor="start" font-weight="700" >实测口径（FA1 论文 Figure 2 左，GPT-2 medium，N=1024、d=64，forward+backward 端到端）</text>
<text x="126.0" y="578.0" font-family="Arial, sans-serif" font-size="12" fill="#475569" text-anchor="start" font-weight="400" >标准实现 66.6 GFLOPs / 40.3 GB → I=1.65；FlashAttention 75.2 GFLOPs / 4.4 GB → I=17。两点都在 ridge 左边。</text>
<text x="126.0" y="600.0" font-family="Arial, sans-serif" font-size="12" fill="#475569" text-anchor="start" font-weight="400" >渐近口径 I=2M/d≈3072 是 N→∞ 的上限；N=1024 时 Θ(Nd) 项与分块重读项同量级，够不到。</text>
<defs><marker id="ar2" markerWidth="10" markerHeight="10" refX="8" refY="5" orient="auto"><path d="M2 2 L8 5 L2 8 Z" fill="#b45309"/></marker></defs>
</svg>
